{"title":"Devdaas_1955_Bollywood_OLD_Hindi Movie(320X240)_{somnath2003}.mp","uid":8525990,"size":349544257,"categoryP":"video","categoryS":"movies","magnet":"?xt=urn:btih:c56b64006f1ef480fadd03ac0217c9716ffa66e0&amp;dn=Devdaas_1955_Bollywood_OLD_Hindi+Movie%28320X240%29_%7Bsomnath2003%7D.mp&amp;tr=udp%3A%2F%2Ftracker.openbittorrent.com%3A80&amp;tr=udp%3A%2F%2Fopen.demonii.com%3A1337&amp;tr=udp%3A%2F%2Ftracker.coppersurfer.tk%3A6969&amp;tr=udp%3A%2F%2Fexodus.desync.com%3A6969","seeders":1,"leechers":0,"uploader":"somnath2003","files":1,"time":1370028764,"description":"[img]http://www.shotpix.com/images/24940000574214150568.png[/img]   [url]http://www.imdb.com/title/tt0047990[/url]\n\n\n[img]http://www.shotpix.com/images/77085747293401738346.gif[/img]\n\n[code]Movie Name :- Devdas (1955)\n\nRun Time :- 159 min  \n\nGenres :-  Musical | Romance\n \nRatings: 7.4/10 from 641 users  \n\nDirector :- Bimal Roy\n\nWriters :- Rajinder Singh Bedi, Saratchandra Chatterjee (novel)\n\nStars :- Dilip Kumar, Vyjayanthimala, Motilal Etc.[/code]\n\n[img]http://www.shotpix.com/images/59022378797514383087.gif[/img]\n\n\n[b]Childhood sweethearts, Devdas and Paro grow up in a small village with a love-hate relationship which changes to love when they mature. Devdas' dad does not approve of his marriage or even any friendship with Paro, and sends him away to Calcutta where he is introduced to a dancer, Chandramukhi, who adores him and falls hopelessly in love with him. Devdas in not aware of Chandramukhi's affection[/b]\n\n\n[img]http://www.shotpix.com/images/44663617507488027387.gif   [/img]\n\n\n[code]Complete name                            : Devdaas_1955_Bollywood_OLD_Hindi Movie(320X240)_{somnath2003}\nFormat                                   : Flash Video\nFile size                                : 333 MiB\nDuration                                 : 2h 42mn\nOverall bit rate                         : 288 Kbps\nhttphostheader                           :\n\n[img]http://www.shotpix.com/images/34235854661596452485.gif[/img]\n\n\n[code]Format                                   : MP4\nCodec ID                                 : 2\nDuration                                 : 2h 42mn\nBit rate                                 : 216 Kbps\nWidth                                    : 320 pixels\nHeight                                   : 240 pixels\nDisplay aspect ratio                     : 4:3\nFrame rate mode                          : Constant\nFrame rate                               : 25.000 fps\nBit depth                                : 8 bits\nBits/(Pixel*Frame)                       : 0.112\nStream size                              : 250 MiB (75%)[/code]\n\n[img]http://www.shotpix.com/images/54760780871226007874.gif[/img]\n\n\n[code]Format                                   : MPEG Audio\nFormat version                           : Version 2\nFormat profile                           : Layer 3\nMode                                     : Joint stereo\nMode extension                           : MS Stereo\nCodec ID                                 : 2\nCodec ID/Hint                            : MP3\nDuration                                 : 2h 42mn\nBit rate mode                            : Constant\nBit rate                                 : 64.0 Kbps\nChannel(s)                               : 2 channels\nSampling rate                            : 22.05 KHz\nCompression mode                         : Lossy\nStream size                              : 74.2 MiB (22%)\nWriting library                          : LAME3.98.2[/code]\n\n[img]http://www.shotpix.com/images/50894759808379845433.gif[/img]\n\n\n[img]http://img856.imageshack.us/img856/9229/devdaas1955bollywoodold.jpg[/img]\n\n\n[img]http://www.shotpix.com/images/58829411693773444709.gif[/img]\n\n\n[img]http://www.shotpix.com/images/37530658244654420663.jpg[/img]","torrent":{"xt":"urn:btih:c56b64006f1ef480fadd03ac0217c9716ffa66e0","amp;dn":"Devdaas_1955_Bollywood_OLD_Hindi+Movie%28320X240%29_%7Bsomnath2003%7D.mp","amp;tr":["udp%3A%2F%2Ftracker.openbittorrent.com%3A80","udp%3A%2F%2Fopen.demonii.com%3A1337","udp%3A%2F%2Ftracker.coppersurfer.tk%3A6969","udp%3A%2F%2Fexodus.desync.com%3A6969"],"infoHash":"c56b64006f1ef480fadd03ac0217c9716ffa66e0","infoHashBuffer":{"type":"Buffer","data":[197,107,100,0,111,30,244,128,250,221,3,172,2,23,201,113,111,250,102,224]},"announce":[],"urlList":[]}}